<?xml version="1.0" encoding="UTF-8" standalone="no"?>
<svg
   id="Layer_1"
   data-name="Layer 1"
   viewBox="0 0 263.32 234.77"
   version="1.1"
   sodipodi:docname="psplogo.svg"
   inkscape:version="1.4.2 (ebf0e940d0, 2025-05-08)"
   xmlns:inkscape="http://www.inkscape.org/namespaces/inkscape"
   xmlns:sodipodi="http://sodipodi.sourceforge.net/DTD/sodipodi-0.dtd"
   xmlns="http://www.w3.org/2000/svg"
   xmlns:svg="http://www.w3.org/2000/svg">
  <sodipodi:namedview
     id="namedview20"
     pagecolor="#ffffff"
     bordercolor="#000000"
     borderopacity="0.25"
     inkscape:showpageshadow="2"
     inkscape:pageopacity="0.0"
     inkscape:pagecheckerboard="0"
     inkscape:deskcolor="#d1d1d1"
     inkscape:zoom="3.16054"
     inkscape:cx="131.78128"
     inkscape:cy="117.385"
     inkscape:window-width="1920"
     inkscape:window-height="961"
     inkscape:window-x="0"
     inkscape:window-y="0"
     inkscape:window-maximized="1"
     inkscape:current-layer="Layer_1" />
  <defs
     id="defs1">
    <style
       id="style1">.cls-1{fill:#ed1c24;}.cls-1,.cls-2,.cls-3,.cls-5{fill-rule:evenodd;}.cls-2{fill:#d1d3d4;}.cls-3{fill:#f7931e;}.cls-4,.cls-5{fill:#231f20;}</style>
  </defs>
  <title
     id="title1">Pasargad psp logo</title>
  <path
     class="cls-1"
     d="M210.41,324.13q44.28-36.58,80.71-43.57a85.2,85.2,0,0,1,51,5.83c44,19.79,50.9,71.85,37.67,105.51,14.32-62.25-14.62-88.28-40.86-96.07-15.46-4.59-33-3.3-48.17,1.55-27.45,8.75-47,28.83-61.85,40.82-10.29,1.65-17.64-1.23-18.54-14.07Z"
     transform="translate(-174 -279)"
     id="path1" />
  <path
     class="cls-2"
     d="M261.23,337.24c-5.2,26.24-1.11,49.52,16.59,60.05,14,8.33,33.6,7.9,48.36,2.1,13.52-5.31,24.63-15,38-25.07,9.51-1.73,13,3.45,12.47,9.27-16.49,13.24-33.26,23.38-50.56,27.74-12.68,3.19-24.62,3.06-36.86-1.75-32.75-12.87-37.06-50-28-72.34Z"
     transform="translate(-174 -279)"
     id="path2" />
  <path
     class="cls-3"
     d="M282.33,321.26c10.05-4.86,19.83-6.58,29.53-7.17-7.66,1.86-13.73.79-16.55,8.4-6.64,1.82-13.43,5.51-20.31,10.05a39,39,0,0,1,7.33-11.28Z"
     transform="translate(-174 -279)"
     id="path3" />
  <path
     class="cls-3"
     d="M274,335a99.45,99.45,0,0,1,36-11.57c-12.3,3.9-19.08,3.2-21.09,14l-17.37,9.44A57.89,57.89,0,0,1,274,335Z"
     transform="translate(-174 -279)"
     id="path4" />
  <path
     class="cls-3"
     d="M271.46,349.34c19.13-15.59,65.47-24.56,82.17-14.17-22.08-4.38-43.94-1.35-64.2,7.67-1.74.77-2,2.11-2.28,3.75s-.61,3.24-.92,4.86c-3.85,1.41-8.13,4.4-13.05,9.72a33.9,33.9,0,0,1-1.72-11.83Z"
     transform="translate(-174 -279)"
     id="path5" />
  <path
     class="cls-3"
     d="M274.19,364.15c18.64-16.43,58.23-24.3,77.17-17.9C329,344.73,308.8,349,289.3,357.33c-.63.29-1,.88-.8,2.13s1,5.74,0,6.54a64.07,64.07,0,0,0-9.12,7.77,45.85,45.85,0,0,1-5.19-9.62Z"
     transform="translate(-174 -279)"
     id="path6" />
  <path
     class="cls-3"
     d="M281,375.93c8.32-11.21,42.15-20.71,50.44-16.52A129.11,129.11,0,0,0,294.82,369c-.81.52-1.08,1.25-.7,2.61.37,1.72.73,3.44,1.1,5.16l-5.63,7.07a35.6,35.6,0,0,1-8.55-7.95Z"
     transform="translate(-174 -279)"
     id="path7" />
  <path
     class="cls-3"
     d="M291.18,385c6.47-8.05,15.8-12,27.47-12.67-7.46,2.33-14.07,5.06-18.14,9-.9,1.06.62,1.51,1.37,1.87l2.68,1.28-1.95,5.8A43.55,43.55,0,0,1,291.18,385Z"
     transform="translate(-174 -279)"
     id="path8" />
  <path
     class="cls-3"
     d="M304.71,390.8c3.42-5.72,7.82-8.37,13.27-7.73-3.55,1.16-6.63,2.76-8.4,5.62-.25,1,.3.9.68,1.05l2.1.45c.69.12.62.45.6,1,0,.3-.08.59-.11.89a40.29,40.29,0,0,1-8.14-1.25Z"
     transform="translate(-174 -279)"
     id="path9" />
  <path
     class="cls-3"
     d="M288,316c9.23-7.08,20.64-11.45,38-8.31,17.09,4.56,24.95,13.77,30.22,24.27-15-20.9-37.54-26.71-68.25-16Z"
     transform="translate(-174 -279)"
     id="path10" />
  <path
     class="cls-4"
     d="M196,456.71a4.2,4.2,0,0,1-2.83-1.64c-.42,1.15-1.45,1.73-3.09,1.73h-12.6a3.13,3.13,0,0,1-2.52-1.22,4.12,4.12,0,0,1-.93-2.7v-3.63h2.4v3.3a2.11,2.11,0,0,0,.39,1.43,1.89,1.89,0,0,0,1.4.41h11.75c.8,0,1.2-.28,1.2-.86a1.72,1.72,0,0,0-.59-1.09l-6.24-6.57-.45-2.7,8.87-3.19.33,2.4-6.26,2.34,6.68,7.42,1.72,1.73a2.9,2.9,0,0,0,1.91.52h3.31a1.89,1.89,0,0,0,1.39-.4,2.09,2.09,0,0,0,.39-1.44v-3.3h2.4v3.3c0,.8.19,1.32.56,1.56a3,3,0,0,0,1.52.28,23.25,23.25,0,0,0,3.42-.14c.54-.2.8-.92.8-2.17,0-.31,0-.78,0-1.41s0-1.11,0-1.42h2.46v3.63a4.08,4.08,0,0,1-1,2.7,3.18,3.18,0,0,1-2.53,1.22h-3.94a10.72,10.72,0,0,1-1.24-.11,4,4,0,0,1-1.21-.82,3.62,3.62,0,0,1-2.29.94H196v-.09Zm8.75,4.67a1.32,1.32,0,0,1-.44,1,1.52,1.52,0,0,1-1.06.4,1.83,1.83,0,0,1-1.16-.37,1.24,1.24,0,0,1-.53-1c0-.88.51-1.33,1.53-1.33s1.66.45,1.66,1.33Zm-4.61,0a1.32,1.32,0,0,1-.44,1,1.52,1.52,0,0,1-1.06.4,1.83,1.83,0,0,1-1.16-.37,1.24,1.24,0,0,1-.53-1c0-.88.51-1.33,1.53-1.33s1.66.45,1.66,1.33ZM211,445.47a1.67,1.67,0,0,1-.49,1.21,1.62,1.62,0,0,1-1.18.49c-1.22,0-1.83-.57-1.83-1.7,0-1,.58-1.43,1.74-1.43s1.76.48,1.76,1.43Zm13.67,11.63a5.35,5.35,0,0,1-1.81,4.09,6,6,0,0,1-4.22,1.69h-3.12l-.3-2.41h3a4.12,4.12,0,0,0,2.83-1,3.55,3.55,0,0,0,1.19-2.68,9,9,0,0,1-4.37-.8,4.1,4.1,0,0,1-1.82-3.85q0-3,1.44-4.23a4.5,4.5,0,0,1,2.93-.75,3.55,3.55,0,0,1,3.66,2.3,13.52,13.52,0,0,1,.56,4.61v3Zm-2.4-2.71v-2.47c0-1.56-.63-2.35-1.88-2.35a1.57,1.57,0,0,0-1.55.78,4.34,4.34,0,0,0-.29,1.85,1.83,1.83,0,0,0,1.22,1.95,8.53,8.53,0,0,0,2.5.24Zm16.53,2.41h-.93v-.09a2.5,2.5,0,0,1-1.65-1,8.08,8.08,0,0,1-1.49,5,5.39,5.39,0,0,1-4.58,2.21H227l-.39-2.41h3.32a3.9,3.9,0,0,0,2.66-1,3.27,3.27,0,0,0,1.16-2.55v-7.7h2.4v3.46c0,1.09.88,1.65,2.62,1.68h3.53a1.89,1.89,0,0,0,1.39-.4,2.09,2.09,0,0,0,.39-1.44v-3.3h2.41v3.3a1.79,1.79,0,0,0,.55,1.56,3.19,3.19,0,0,0,1.6.28h6.19c.63,0,1-.41,1-1.24a1,1,0,0,0-.27-.71l-6.26-6.57-.44-2.7,8.84-3.19.33,2.4-6.26,2.34,6.64,7.35a10.2,10.2,0,0,0,1.76,1.67,4.36,4.36,0,0,0,2.32.65h.43c.77,0,1.26-.25,1.46-.58a4.44,4.44,0,0,0,.2-1.76V441.38h2.37v11.74a3.54,3.54,0,0,1-1,2.71,4,4,0,0,1-2.8,1h-1.83v-.08a4.4,4.4,0,0,1-3.13-1.67c-.47,1.16-1.58,1.75-3.31,1.75h-7.13v0a7.3,7.3,0,0,1-1.11-.1,4.22,4.22,0,0,1-1.24-.82,3.62,3.62,0,0,1-2.29.94ZM248,445.27a1.31,1.31,0,0,1-.44,1,1.48,1.48,0,0,1-1.05.4c-1.13,0-1.7-.48-1.7-1.43s.51-1.33,1.54-1.33,1.65.44,1.65,1.33Zm-4.61,0a1.31,1.31,0,0,1-.44,1,1.48,1.48,0,0,1-1,.4c-1.13,0-1.7-.48-1.7-1.43s.51-1.33,1.54-1.33,1.65.44,1.65,1.33Zm30.17,11.53h-2.33V441.38h2.33V456.8Zm23.81-11.56a1.34,1.34,0,0,1-.44,1,1.55,1.55,0,0,1-1.08.4c-1.14,0-1.71-.47-1.71-1.42s.53-1.32,1.58-1.32,1.65.44,1.65,1.32Zm-4.63,0a1.34,1.34,0,0,1-.44,1,1.56,1.56,0,0,1-1.07.4c-1.14,0-1.71-.47-1.71-1.42s.52-1.32,1.55-1.32,1.67.44,1.67,1.32Zm13.09,11.56h-1v0a4.5,4.5,0,0,1-2.81-.91,3.87,3.87,0,0,1-2.32.94H287.05a3.1,3.1,0,0,1-2.49-1.23,4.1,4.1,0,0,1-.94-2.69v-3.63H286v3.3a2,2,0,0,0,.41,1.44,1.92,1.92,0,0,0,1.4.4H299a1.85,1.85,0,0,0,1.38-.4,2.09,2.09,0,0,0,.38-1.44v-3.3h2.45v3.3c0,1.16.79,1.78,2.37,1.84a15.64,15.64,0,0,0,5.85-.9l1.74-.91q1-.54,2.94-1.65a2.23,2.23,0,0,0-1.55-1.25,12.68,12.68,0,0,0-2.13-.11h-4.21l-.33-2.37h5.93q4.91,0,4.9,4.95l-5.5,3.14a10.82,10.82,0,0,1-4.06,1.38c-.59.07-1.69.11-3.31.12Zm8.24-13.91a1.67,1.67,0,0,1-1.67,1.67c-1.22,0-1.82-.55-1.82-1.67,0-1,.58-1.44,1.75-1.44s1.74.48,1.74,1.44Zm10.1,13.91h-2.34V441.38h2.34V456.8Zm15.29-3.15a2.86,2.86,0,0,1-1.08,2.33,3.81,3.81,0,0,1-2.47.82h-7.46l-.33-2.41h7.63c.89,0,1.33-.31,1.33-.93a1.28,1.28,0,0,0-.35-.88l-5.42-5.75L333,445.2l5.42,5.73a3.87,3.87,0,0,1,1.11,2.72Zm13.2,3.15H352v-.05a2.6,2.6,0,0,1-1.91-1.09,8.08,8.08,0,0,1-1.49,5,5.39,5.39,0,0,1-4.58,2.21h-3.12l-.39-2.41h3.32a3.9,3.9,0,0,0,2.66-1,3.27,3.27,0,0,0,1.16-2.55v-7.7h2.4v3.46c0,1.09.88,1.65,2.62,1.68h3.72a1.88,1.88,0,0,0,1.39-.4,2.14,2.14,0,0,0,.38-1.44v-3.3h2.4v3.63a4.21,4.21,0,0,1-.9,2.7,3.13,3.13,0,0,1-2.52,1.22Zm7.6,4.19c0,.86-.52,1.28-1.55,1.28s-1.67-.42-1.67-1.28a1.4,1.4,0,0,1,.43-1.06,1.49,1.49,0,0,1,1.08-.42c1.14,0,1.71.49,1.71,1.48Zm-4.61,0c0,.86-.51,1.28-1.55,1.28s-1.67-.42-1.67-1.28a1.44,1.44,0,0,1,.43-1.06,1.51,1.51,0,0,1,1.08-.42c1.14,0,1.71.49,1.71,1.48Zm2.2,3.39c0,.88-.51,1.31-1.53,1.31s-1.69-.43-1.69-1.31a1.31,1.31,0,0,1,1.5-1.46,1.9,1.9,0,0,1,1.19.37,1.29,1.29,0,0,1,.53,1.09Zm29.36-19.14a1.3,1.3,0,0,1-.45,1,1.55,1.55,0,0,1-1.08.4c-1.13,0-1.7-.47-1.7-1.42s.52-1.32,1.57-1.32,1.66.44,1.66,1.32Zm-4.63,0a1.33,1.33,0,0,1-.45,1,1.52,1.52,0,0,1-1.06.4c-1.14,0-1.71-.47-1.71-1.42s.51-1.32,1.55-1.32,1.67.44,1.67,1.32ZM395.7,456.8h-.89v0a4.58,4.58,0,0,1-2.93-.91,3.94,3.94,0,0,1-2.33.94H376.89a3.11,3.11,0,0,1-2.5-1.23,4.13,4.13,0,0,1-.93-2.69v-3.63h2.4v3.3a2,2,0,0,0,.4,1.44,1.92,1.92,0,0,0,1.4.4h11.18a1.85,1.85,0,0,0,1.38-.4,2.07,2.07,0,0,0,.39-1.44v-3.3h2.44v3.3c0,1.23.88,1.84,2.65,1.84h6.62c.63,0,.95-.37.95-1.12a1.17,1.17,0,0,0-.31-.83l-6.24-6.57-.4-2.68,8.82-3.21.36,2.41-6.22,2.33,4.93,5.52a15.68,15.68,0,0,1,1.33,1.9,2.64,2.64,0,0,1,.45,1.38c0,2.19-1.23,3.28-3.67,3.28Zm23.46,0h-.94v-.09a2.51,2.51,0,0,1-1.64-1,8.08,8.08,0,0,1-1.5,5,5.38,5.38,0,0,1-4.58,2.21h-3.11l-.39-2.41h3.31a3.94,3.94,0,0,0,2.66-1,3.27,3.27,0,0,0,1.16-2.55v-7.7h2.41v3.46c0,1.09.87,1.65,2.62,1.68h1.94c1.11,0,1.67-.58,1.67-1.75v-3.39h2.37v3.54a1.8,1.8,0,0,0,.59,1.41,2.05,2.05,0,0,0,1.45.54c1.13,0,1.7-.5,1.7-1.49v-4h2.33v3.54a1.81,1.81,0,0,0,.61,1.4,2.1,2.1,0,0,0,1.46.55c1.12,0,1.68-.5,1.68-1.49v-4h2.36v3.69a4.77,4.77,0,0,1-.81,2.84A2.94,2.94,0,0,1,434,457a4.23,4.23,0,0,1-3.31-1.63,3.91,3.91,0,0,1-2.93,1.63,4.26,4.26,0,0,1-3.27-1.93,4.52,4.52,0,0,1-3.16,1.69Zm12-14.08a1.35,1.35,0,0,1-.45,1,1.57,1.57,0,0,1-1.08.42,1.79,1.79,0,0,1-1.16-.4,1.34,1.34,0,0,1-.54-1.07c0-.86.51-1.3,1.54-1.3s1.69.44,1.69,1.3Zm2.35,3.39a1.37,1.37,0,0,1-.44,1.06,1.53,1.53,0,0,1-1.09.42,1.84,1.84,0,0,1-1.18-.41,1.32,1.32,0,0,1-.5-1.07c0-.85.5-1.28,1.5-1.28s1.71.43,1.71,1.28Zm-4.65,0a1.44,1.44,0,0,1-.44,1.05,1.49,1.49,0,0,1-1.07.43,1.79,1.79,0,0,1-1.17-.41,1.32,1.32,0,0,1-.5-1.07c0-.85.52-1.28,1.54-1.28s1.64.43,1.64,1.28Z"
     transform="translate(-174 -279)"
     id="path11"
     style="fill:#ffffff" />
  <polygon
     class="cls-5"
     points="188.05 196.06 180.89 201.06 180.89 226.13 188.05 226.13 188.05 196.06 188.05 196.06"
     id="polygon11"
     style="fill:#ffffff" />
  <path
     class="cls-5"
     d="M354.89,496.54h14.25a.87.87,0,0,0,.93-.78l0-7.27,6.26-4.38v16.77a4.26,4.26,0,0,1-4.25,4.25H354.89v-8.59Z"
     transform="translate(-174 -279)"
     id="path12"
     style="fill:#ffffff" />
  <path
     class="cls-5"
     d="M338.21,496.54h6.85a.88.88,0,0,0,.93-.78l0-7.27,6.26-4.38v16.77a4.29,4.29,0,0,1-4.25,4.25h-9.76v-8.59Z"
     transform="translate(-174 -279)"
     id="path13"
     style="fill:#ffffff" />
  <path
     class="cls-5"
     d="M324.3,496.54h6.85a.88.88,0,0,0,.93-.78l0-7.27,6.26-4.38v16.77a4.29,4.29,0,0,1-4.25,4.25H324.3v-8.59Z"
     transform="translate(-174 -279)"
     id="path14"
     style="fill:#ffffff" />
  <path
     class="cls-5"
     d="M311.34,496.54h5.9a.88.88,0,0,0,.93-.78l0-7.27,6.26-4.38v16.77a4.28,4.28,0,0,1-4.25,4.25h-16V480.06l7.16-5v21.49Z"
     transform="translate(-174 -279)"
     id="path15"
     style="fill:#ffffff" />
  <path
     class="cls-5"
     d="M287.33,496.54h6.84a.88.88,0,0,0,.93-.78l0-7.27,6.27-4.38v16.77a4.29,4.29,0,0,1-4.26,4.25h-9.75v-8.59Z"
     transform="translate(-174 -279)"
     id="path16"
     style="fill:#ffffff" />
  <path
     class="cls-5"
     d="M266.16,475.05l-7.16,5v25.07h16.3c2.27-.17,4.59.29,6.46-1,4.34-3,5.21-9.63.52-13l-5.34-4.21,11.86-8.84-9,.13c-.32.19-11.7,8.7-11.7,8.7l10.12,8.45c.64.52.45,1.1-.47,1.16H266.16V475.05Zm1.93,5.73.06,4.07,14.22-10.51-5.49.06-8.79,6.38Z"
     transform="translate(-174 -279)"
     id="path17"
     style="fill:#ffffff" />
  <path
     class="cls-5"
     d="M239.59,496.54h6.85c1.37.48,3.12-1.13,2-2.48l-8.89-7.52.15-7.5,15.62,13.72c2.6,2.66,3.71,12.37-5.95,12.37h-9.75v-8.59Z"
     transform="translate(-174 -279)"
     id="path18"
     style="fill:#ffffff" />
  <polygon
     class="cls-5"
     points="175.74 230.48 181.03 226.19 186.33 230.48 181.03 234.76 175.74 230.48 175.74 230.48"
     id="polygon18"
     style="fill:#ffffff" />
  <polygon
     class="cls-5"
     points="186.22 230.48 191.52 226.19 196.81 230.48 191.52 234.76 186.22 230.48 186.22 230.48"
     id="polygon19"
     style="fill:#ffffff" />
  <polygon
     class="cls-5"
     points="196.7 230.48 202 226.19 207.29 230.48 202 234.76 196.7 230.48 196.7 230.48"
     id="polygon20"
     style="fill:#ffffff" />
  <path
     style="fill:#ffffff;fill-opacity:0;stroke-width:0.316402"
     d="m 21.35711,177.38261 c -0.522063,-0.24604 -1.230575,-0.66198 -1.574472,-0.92431 -0.571478,-0.43593 -0.685856,-0.41159 -1.329599,0.28302 l -0.704332,0.75999 h -7.629548 c -4.6277367,0 -7.8690485,-0.12818 -8.2382751,-0.32578 C 0.83551003,176.61606 0.31640162,175.1546 0.31640162,172.771 v -2.23053 H 1.2656065 2.2148114 v 2.00758 c 0,3.10255 -0.1216735,3.05485 7.7925736,3.05485 8.85858,0 8.932052,-0.0776 4.460419,-4.71124 -3.825404,-3.964 -3.936279,-4.10819 -4.183344,-5.44021 l -0.210336,-1.13401 4.15432,-1.51331 c 2.284876,-0.83231 4.1984,-1.46106 4.252275,-1.3972 0.05388,0.0639 0.188797,0.49533 0.299825,0.95883 0.193586,0.80815 0.09695,0.88279 -2.355535,1.81931 -1.406572,0.53712 -2.652024,0.97876 -2.767672,0.98142 -0.115647,0.003 -0.412981,0.13314 -0.66074,0.28995 -0.34983,0.22141 0.490069,1.32129 3.759386,4.92305 2.315423,2.55088 4.556329,4.76968 4.979793,4.93068 0.423464,0.161 1.891638,0.29273 3.262609,0.29273 3.046336,0 3.477761,-0.40124 3.477761,-3.23442 0,-1.82018 0.0041,-1.82801 0.949205,-1.82801 h 0.949205 v 1.89841 c 0,2.77781 0.580753,3.26777 3.687373,3.11089 1.632442,-0.0824 2.44674,-0.26258 2.651648,-0.58662 0.162649,-0.25721 0.297905,-1.35753 0.300569,-2.44517 l 0.0048,-1.97751 h 1.107406 1.107405 v 2.07233 c 0,2.24501 -0.506388,3.59326 -1.650601,4.3947 -0.893505,0.62584 -6.567194,0.70217 -7.529339,0.1013 -0.508906,-0.31782 -0.763983,-0.30615 -1.340414,0.0613 -1.018975,0.64955 -6.116528,0.79682 -7.356337,0.21252 z"
     id="path20" />
  <path
     style="fill:#ffffff;fill-opacity:0;stroke-width:0.316402"
     d="m 21.35711,177.38261 c -0.522063,-0.24604 -1.230575,-0.66198 -1.574472,-0.92431 -0.571478,-0.43593 -0.685856,-0.41159 -1.329599,0.28302 l -0.704332,0.75999 h -7.629548 c -4.6277367,0 -7.8690485,-0.12818 -8.2382751,-0.32578 C 0.83551003,176.61606 0.31640162,175.1546 0.31640162,172.771 v -2.23053 H 1.2656065 2.2148114 v 2.00758 c 0,3.10255 -0.1216735,3.05485 7.7925736,3.05485 8.85858,0 8.932052,-0.0776 4.460419,-4.71124 -3.825404,-3.964 -3.936279,-4.10819 -4.183344,-5.44021 l -0.210336,-1.13401 4.15432,-1.51331 c 2.284876,-0.83231 4.1984,-1.46106 4.252275,-1.3972 0.05388,0.0639 0.188797,0.49533 0.299825,0.95883 0.193586,0.80815 0.09695,0.88279 -2.355535,1.81931 -1.406572,0.53712 -2.652024,0.97876 -2.767672,0.98142 -0.115647,0.003 -0.412981,0.13314 -0.66074,0.28995 -0.34983,0.22141 0.490069,1.32129 3.759386,4.92305 2.315423,2.55088 4.556329,4.76968 4.979793,4.93068 0.423464,0.161 1.891638,0.29273 3.262609,0.29273 3.046336,0 3.477761,-0.40124 3.477761,-3.23442 0,-1.82018 0.0041,-1.82801 0.949205,-1.82801 h 0.949205 v 1.89841 c 0,2.77781 0.580753,3.26777 3.687373,3.11089 1.632442,-0.0824 2.44674,-0.26258 2.651648,-0.58662 0.162649,-0.25721 0.297905,-1.35753 0.300569,-2.44517 l 0.0048,-1.97751 h 1.107406 1.107405 v 2.07233 c 0,2.24501 -0.506388,3.59326 -1.650601,4.3947 -0.893505,0.62584 -6.567194,0.70217 -7.529339,0.1013 -0.508906,-0.31782 -0.763983,-0.30615 -1.340414,0.0613 -1.018975,0.64955 -6.116528,0.79682 -7.356337,0.21252 z"
     id="path21" />
  <path
     style="fill:#ffffff;fill-opacity:0;stroke-width:0.316402"
     d="m 21.35711,177.38261 c -0.522063,-0.24604 -1.230575,-0.66198 -1.574472,-0.92431 -0.571478,-0.43593 -0.685856,-0.41159 -1.329599,0.28302 l -0.704332,0.75999 h -7.629548 c -4.6277367,0 -7.8690485,-0.12818 -8.2382751,-0.32578 C 0.83551003,176.61606 0.31640162,175.1546 0.31640162,172.771 v -2.23053 H 1.2656065 2.2148114 v 2.00758 c 0,3.10255 -0.1216735,3.05485 7.7925736,3.05485 8.85858,0 8.932052,-0.0776 4.460419,-4.71124 -3.825404,-3.964 -3.936279,-4.10819 -4.183344,-5.44021 l -0.210336,-1.13401 4.15432,-1.51331 c 2.284876,-0.83231 4.1984,-1.46106 4.252275,-1.3972 0.05388,0.0639 0.188797,0.49533 0.299825,0.95883 0.193586,0.80815 0.09695,0.88279 -2.355535,1.81931 -1.406572,0.53712 -2.652024,0.97876 -2.767672,0.98142 -0.115647,0.003 -0.412981,0.13314 -0.66074,0.28995 -0.34983,0.22141 0.490069,1.32129 3.759386,4.92305 2.315423,2.55088 4.556329,4.76968 4.979793,4.93068 0.423464,0.161 1.891638,0.29273 3.262609,0.29273 3.046336,0 3.477761,-0.40124 3.477761,-3.23442 0,-1.82018 0.0041,-1.82801 0.949205,-1.82801 h 0.949205 v 1.89841 c 0,2.77781 0.580753,3.26777 3.687373,3.11089 1.632442,-0.0824 2.44674,-0.26258 2.651648,-0.58662 0.162649,-0.25721 0.297905,-1.35753 0.300569,-2.44517 l 0.0048,-1.97751 h 1.107406 1.107405 v 2.07233 c 0,2.24501 -0.506388,3.59326 -1.650601,4.3947 -0.893505,0.62584 -6.567194,0.70217 -7.529339,0.1013 -0.508906,-0.31782 -0.763983,-0.30615 -1.340414,0.0613 -1.018975,0.64955 -6.116528,0.79682 -7.356337,0.21252 z"
     id="path22" />
  <path
     style="fill:#ffffff;fill-opacity:0;stroke-width:0.316402"
     d="m 21.35711,177.38261 c -0.522063,-0.24604 -1.230575,-0.66198 -1.574472,-0.92431 -0.571478,-0.43593 -0.685856,-0.41159 -1.329599,0.28302 l -0.704332,0.75999 h -7.629548 c -4.6277367,0 -7.8690485,-0.12818 -8.2382751,-0.32578 C 0.83551003,176.61606 0.31640162,175.1546 0.31640162,172.771 v -2.23053 H 1.2656065 2.2148114 v 2.00758 c 0,3.10255 -0.1216735,3.05485 7.7925736,3.05485 8.85858,0 8.932052,-0.0776 4.460419,-4.71124 -3.825404,-3.964 -3.936279,-4.10819 -4.183344,-5.44021 l -0.210336,-1.13401 4.15432,-1.51331 c 2.284876,-0.83231 4.1984,-1.46106 4.252275,-1.3972 0.05388,0.0639 0.188797,0.49533 0.299825,0.95883 0.193586,0.80815 0.09695,0.88279 -2.355535,1.81931 -1.406572,0.53712 -2.652024,0.97876 -2.767672,0.98142 -0.115647,0.003 -0.412981,0.13314 -0.66074,0.28995 -0.34983,0.22141 0.490069,1.32129 3.759386,4.92305 2.315423,2.55088 4.556329,4.76968 4.979793,4.93068 0.423464,0.161 1.891638,0.29273 3.262609,0.29273 3.046336,0 3.477761,-0.40124 3.477761,-3.23442 0,-1.82018 0.0041,-1.82801 0.949205,-1.82801 h 0.949205 v 1.89841 c 0,2.77781 0.580753,3.26777 3.687373,3.11089 1.632442,-0.0824 2.44674,-0.26258 2.651648,-0.58662 0.162649,-0.25721 0.297905,-1.35753 0.300569,-2.44517 l 0.0048,-1.97751 h 1.107406 1.107405 v 2.07233 c 0,2.24501 -0.506388,3.59326 -1.650601,4.3947 -0.893505,0.62584 -6.567194,0.70217 -7.529339,0.1013 -0.508906,-0.31782 -0.763983,-0.30615 -1.340414,0.0613 -1.018975,0.64955 -6.116528,0.79682 -7.356337,0.21252 z"
     id="path23" />
  <path
     style="fill:#ffffff;fill-opacity:0;stroke-width:0.316402"
     d="m 21.35711,177.38261 c -0.522063,-0.24604 -1.230575,-0.66198 -1.574472,-0.92431 -0.571478,-0.43593 -0.685856,-0.41159 -1.329599,0.28302 l -0.704332,0.75999 h -7.629548 c -4.6277367,0 -7.8690485,-0.12818 -8.2382751,-0.32578 C 0.83551003,176.61606 0.31640162,175.1546 0.31640162,172.771 v -2.23053 H 1.2656065 2.2148114 v 2.00758 c 0,3.10255 -0.1216735,3.05485 7.7925736,3.05485 8.85858,0 8.932052,-0.0776 4.460419,-4.71124 -3.825404,-3.964 -3.936279,-4.10819 -4.183344,-5.44021 l -0.210336,-1.13401 4.15432,-1.51331 c 2.284876,-0.83231 4.1984,-1.46106 4.252275,-1.3972 0.05388,0.0639 0.188797,0.49533 0.299825,0.95883 0.193586,0.80815 0.09695,0.88279 -2.355535,1.81931 -1.406572,0.53712 -2.652024,0.97876 -2.767672,0.98142 -0.115647,0.003 -0.412981,0.13314 -0.66074,0.28995 -0.34983,0.22141 0.490069,1.32129 3.759386,4.92305 2.315423,2.55088 4.556329,4.76968 4.979793,4.93068 0.423464,0.161 1.891638,0.29273 3.262609,0.29273 3.046336,0 3.477761,-0.40124 3.477761,-3.23442 0,-1.82018 0.0041,-1.82801 0.949205,-1.82801 h 0.949205 v 1.89841 c 0,2.77781 0.580753,3.26777 3.687373,3.11089 1.632442,-0.0824 2.44674,-0.26258 2.651648,-0.58662 0.162649,-0.25721 0.297905,-1.35753 0.300569,-2.44517 l 0.0048,-1.97751 h 1.107406 1.107405 v 2.07233 c 0,2.24501 -0.506388,3.59326 -1.650601,4.3947 -0.893505,0.62584 -6.567194,0.70217 -7.529339,0.1013 -0.508906,-0.31782 -0.763983,-0.30615 -1.340414,0.0613 -1.018975,0.64955 -6.116528,0.79682 -7.356337,0.21252 z"
     id="path24" />
  <path
     style="fill:#ffffff;fill-opacity:0;stroke-width:0.316402"
     d="m 85.112037,213.58106 v -12.3297 l 3.401317,-2.3978 3.401317,-2.3978 0.08332,10.62095 0.08332,10.62096 6.240607,-0.0858 c 5.348942,-0.0735 6.254112,-0.15607 6.335132,-0.57773 0.0592,-0.30789 -1.80382,-2.08094 -4.979226,-4.73891 -2.790554,-2.33583 -5.069126,-4.32135 -5.063495,-4.41227 0.0056,-0.0909 2.561894,-2.05616 5.680591,-4.3672 l 5.67034,-4.20188 3.98053,0.0887 3.98054,0.0887 -5.53604,4.11322 c -3.04482,2.26228 -5.54138,4.19616 -5.5479,4.29754 -0.007,0.10137 1.53257,1.39966 3.4202,2.8851 4.01448,3.15913 4.95473,4.60098 4.91044,7.53004 -0.0316,2.08819 -0.62011,3.5842 -2.05127,5.21421 -2.03423,2.31686 -2.31236,2.36465 -13.805766,2.37248 l -10.203952,0.007 z"
     id="path25" />
  <path
     style="fill:#ffffff;fill-opacity:0;stroke-width:0.316402"
     d=""
     id="path26" />
  <path
     style="fill:#ffffff;fill-opacity:0;stroke-width:0.316402"
     d="m 21.35711,177.38261 c -0.522063,-0.24604 -1.230575,-0.66198 -1.574472,-0.92431 -0.571478,-0.43593 -0.685856,-0.41159 -1.329599,0.28302 l -0.704332,0.75999 h -7.629548 c -4.6277367,0 -7.8690485,-0.12818 -8.2382751,-0.32578 C 0.83551003,176.61606 0.31640162,175.1546 0.31640162,172.771 v -2.23053 H 1.2656065 2.2148114 v 2.00758 c 0,3.10255 -0.1216735,3.05485 7.7925736,3.05485 8.85858,0 8.932052,-0.0776 4.460419,-4.71124 -3.825404,-3.964 -3.936279,-4.10819 -4.183344,-5.44021 l -0.210336,-1.13401 4.15432,-1.51331 c 2.284876,-0.83231 4.1984,-1.46106 4.252275,-1.3972 0.05388,0.0639 0.188797,0.49533 0.299825,0.95883 0.193586,0.80815 0.09695,0.88279 -2.355535,1.81931 -1.406572,0.53712 -2.652024,0.97876 -2.767672,0.98142 -0.115647,0.003 -0.412981,0.13314 -0.66074,0.28995 -0.34983,0.22141 0.490069,1.32129 3.759386,4.92305 2.315423,2.55088 4.556329,4.76968 4.979793,4.93068 0.423464,0.161 1.891638,0.29273 3.262609,0.29273 3.046336,0 3.477761,-0.40124 3.477761,-3.23442 0,-1.82018 0.0041,-1.82801 0.949205,-1.82801 h 0.949205 v 1.89841 c 0,2.77781 0.580753,3.26777 3.687373,3.11089 1.632442,-0.0824 2.44674,-0.26258 2.651648,-0.58662 0.162649,-0.25721 0.297905,-1.35753 0.300569,-2.44517 l 0.0048,-1.97751 h 1.107406 1.107405 v 2.07233 c 0,2.24501 -0.506388,3.59326 -1.650601,4.3947 -0.893505,0.62584 -6.567194,0.70217 -7.529339,0.1013 -0.508906,-0.31782 -0.763983,-0.30615 -1.340414,0.0613 -1.018975,0.64955 -6.116528,0.79682 -7.356337,0.21252 z"
     id="path27" />
  <path
     style="fill:#ffffff;fill-opacity:0;stroke-width:0.316402"
     d="m 21.35711,177.38261 c -0.522063,-0.24604 -1.230575,-0.66198 -1.574472,-0.92431 -0.571478,-0.43593 -0.685856,-0.41159 -1.329599,0.28302 l -0.704332,0.75999 h -7.629548 c -4.6277367,0 -7.8690485,-0.12818 -8.2382751,-0.32578 C 0.83551003,176.61606 0.31640162,175.1546 0.31640162,172.771 v -2.23053 H 1.2656065 2.2148114 v 2.00758 c 0,3.10255 -0.1216735,3.05485 7.7925736,3.05485 8.85858,0 8.932052,-0.0776 4.460419,-4.71124 -3.825404,-3.964 -3.936279,-4.10819 -4.183344,-5.44021 l -0.210336,-1.13401 4.15432,-1.51331 c 2.284876,-0.83231 4.1984,-1.46106 4.252275,-1.3972 0.05388,0.0639 0.188797,0.49533 0.299825,0.95883 0.193586,0.80815 0.09695,0.88279 -2.355535,1.81931 -1.406572,0.53712 -2.652024,0.97876 -2.767672,0.98142 -0.115647,0.003 -0.412981,0.13314 -0.66074,0.28995 -0.34983,0.22141 0.490069,1.32129 3.759386,4.92305 2.315423,2.55088 4.556329,4.76968 4.979793,4.93068 0.423464,0.161 1.891638,0.29273 3.262609,0.29273 3.046336,0 3.477761,-0.40124 3.477761,-3.23442 0,-1.82018 0.0041,-1.82801 0.949205,-1.82801 h 0.949205 v 1.89841 c 0,2.77781 0.580753,3.26777 3.687373,3.11089 1.632442,-0.0824 2.44674,-0.26258 2.651648,-0.58662 0.162649,-0.25721 0.297905,-1.35753 0.300569,-2.44517 l 0.0048,-1.97751 h 1.107406 1.107405 v 2.07233 c 0,2.24501 -0.506388,3.59326 -1.650601,4.3947 -0.893505,0.62584 -6.567194,0.70217 -7.529339,0.1013 -0.508906,-0.31782 -0.763983,-0.30615 -1.340414,0.0613 -1.018975,0.64955 -6.116528,0.79682 -7.356337,0.21252 z"
     id="path28" />
</svg>
