<svg width="1206" height="560" viewBox="0 0 1206 560" fill="none" xmlns="http://www.w3.org/2000/svg">
<g clip-path="url(#clip0_6834_4424)">
<path d="M1130.85 559.06C1129.55 559.06 1128.27 558.84 1127.03 558.4C1098.41 548.23 1079.18 520.99 1079.18 490.61V459.17C1079.18 459.1 1079.18 459.03 1079.19 458.96C1079.02 454.65 1081.2 450.68 1084.88 448.56L1182.2 392.37V286.58L1136.39 260.13C1132.87 258.1 1130.69 254.32 1130.69 250.26V137.88L1084.88 111.43C1081.36 109.4 1079.18 105.62 1079.18 101.56V48.6597L1039.07 25.4997L998.96 48.6597V101.56C998.96 105.62 996.78 109.41 993.26 111.43L947.45 137.88V250.26C947.45 254.32 945.27 258.1 941.75 260.13L895.94 286.58V392.37L993.26 448.56C996.94 450.69 999.12 454.65 998.95 458.91C998.96 459.03 998.96 459.1 998.96 459.16V490.6C998.96 520.98 979.73 548.23 951.11 558.39C949.87 558.83 948.59 559.05 947.29 559.05C942.47 559.05 938.16 556 936.54 551.46C934.44 545.54 937.54 539 943.47 536.9C963.01 529.96 976.14 511.35 976.14 490.59V465L878.82 408.81C875.3 406.78 873.12 403 873.12 398.93V280C873.12 275.94 875.3 272.15 878.82 270.12L924.63 243.67V131.3C924.63 127.24 926.81 123.45 930.33 121.42L976.14 94.9697V42.0697C976.14 38.0097 978.32 34.2197 981.84 32.1997L1033.35 2.45972C1035.08 1.45972 1037.05 0.929688 1039.05 0.929688C1041.05 0.929688 1043.02 1.45972 1044.75 2.45972L1096.26 32.1997C1099.78 34.2297 1101.96 38.0097 1101.96 42.0697V94.9697L1147.77 121.42C1151.29 123.45 1153.47 127.23 1153.47 131.3V243.68L1199.28 270.13C1202.8 272.16 1204.98 275.94 1204.98 280.01V398.97C1204.98 403.03 1202.8 406.82 1199.28 408.85L1101.96 465.04V490.63C1101.96 511.38 1115.09 529.99 1134.63 536.94C1137.5 537.96 1139.8 540.04 1141.11 542.79C1142.42 545.54 1142.58 548.64 1141.56 551.5C1139.99 556.01 1135.67 559.06 1130.85 559.06ZM1039.08 559.06C1032.79 559.06 1027.68 553.94 1027.68 547.66V435.28L930.36 379.09C926.84 377.06 924.66 373.28 924.66 369.21V309.73C924.66 303.44 929.78 298.33 936.06 298.33C942.35 298.33 947.46 303.45 947.46 309.73V362.63L1027.68 408.94V316.31L981.87 289.86C978.35 287.83 976.17 284.05 976.17 279.99V220.51C976.17 216.45 978.35 212.66 981.87 210.64L1027.68 184.19V71.8097C1027.68 65.5197 1032.8 60.4097 1039.08 60.4097C1045.37 60.4097 1050.48 65.5297 1050.48 71.8097V171.02L1084.89 151.16C1086.62 150.16 1088.59 149.63 1090.58 149.63C1094.65 149.63 1098.43 151.82 1100.46 155.33C1101.98 157.97 1102.39 161.04 1101.6 163.98C1100.81 166.92 1098.92 169.38 1096.29 170.9L998.97 227.09V273.4L1044.78 299.85C1048.3 301.88 1050.48 305.66 1050.48 309.72V349.45L1079.19 332.88V220.52C1079.19 214.23 1084.31 209.12 1090.59 209.12C1096.88 209.12 1101.99 214.24 1101.99 220.52V332.9L1147.8 359.35C1150.44 360.87 1152.32 363.33 1153.11 366.27C1153.9 369.21 1153.49 372.28 1151.97 374.92C1149.94 378.44 1146.15 380.62 1142.09 380.62C1140.1 380.62 1138.13 380.09 1136.4 379.09L1090.59 352.64L1050.48 375.8V547.66C1050.48 553.95 1045.37 559.06 1039.08 559.06Z" fill="white"/>
<path d="M1039.08 60.4141C1032.79 60.4141 1027.68 65.5241 1027.68 71.8141C1027.68 78.1041 1032.8 83.2141 1039.08 83.2141C1045.36 83.2141 1050.48 78.0941 1050.48 71.8141C1050.48 65.5341 1045.37 60.4141 1039.08 60.4141Z" fill="white"/>
<path d="M987.57 90.1562C981.28 90.1562 976.17 95.2763 976.17 101.556C976.17 107.836 981.28 112.956 987.57 112.956C993.86 112.956 998.97 107.846 998.97 101.556C998.97 95.2663 993.86 90.1562 987.57 90.1562Z" fill="white"/>
<path d="M1039.08 119.898C1032.79 119.898 1027.68 125.018 1027.68 131.298C1027.68 137.588 1032.8 142.698 1039.08 142.698C1045.36 142.698 1050.48 137.578 1050.48 131.298C1050.48 125.008 1045.37 119.898 1039.08 119.898Z" fill="white"/>
<path d="M1090.59 90.1562C1084.3 90.1562 1079.19 95.2763 1079.19 101.556C1079.19 107.836 1084.3 112.956 1090.59 112.956C1096.88 112.956 1101.99 107.846 1101.99 101.556C1101.99 95.2663 1096.88 90.1562 1090.59 90.1562Z" fill="white"/>
<path d="M1090.59 30.6797C1084.3 30.6797 1079.19 35.7997 1079.19 42.0797C1079.19 48.3697 1084.3 53.4797 1090.59 53.4797C1096.88 53.4797 1101.99 48.3697 1101.99 42.0797C1102 35.7897 1096.88 30.6797 1090.59 30.6797Z" fill="white"/>
<path d="M1039.08 0.9375C1032.79 0.9375 1027.68 6.04752 1027.68 12.3375C1027.68 18.6275 1032.8 23.7375 1039.08 23.7375C1045.36 23.7375 1050.48 18.6175 1050.48 12.3375C1050.48 6.05752 1045.37 0.9375 1039.08 0.9375Z" fill="white"/>
<path d="M987.57 30.6797C981.28 30.6797 976.17 35.7997 976.17 42.0797C976.17 48.3697 981.28 53.4797 987.57 53.4797C993.86 53.4797 998.97 48.3697 998.97 42.0797C998.97 35.7897 993.86 30.6797 987.57 30.6797Z" fill="white"/>
<path d="M936.06 119.898C929.77 119.898 924.66 125.018 924.66 131.298C924.66 137.588 929.78 142.698 936.06 142.698C942.34 142.698 947.46 137.578 947.46 131.298C947.46 125.008 942.35 119.898 936.06 119.898Z" fill="white"/>
<path d="M987.57 149.641C981.28 149.641 976.17 154.761 976.17 161.041C976.17 167.321 981.28 172.441 987.57 172.441C993.86 172.441 998.97 167.331 998.97 161.041C998.97 154.751 993.86 149.641 987.57 149.641Z" fill="white"/>
<path d="M1039.08 202.175C1045.38 202.175 1050.48 197.071 1050.48 190.775C1050.48 184.479 1045.38 179.375 1039.08 179.375C1032.78 179.375 1027.68 184.479 1027.68 190.775C1027.68 197.071 1032.78 202.175 1039.08 202.175Z" fill="white"/>
<path d="M1090.59 149.641C1084.3 149.641 1079.19 154.761 1079.19 161.041C1079.19 167.321 1084.3 172.441 1090.59 172.441C1096.88 172.441 1101.99 167.331 1101.99 161.041C1101.99 154.751 1096.88 149.641 1090.59 149.641Z" fill="white"/>
<path d="M1142.1 119.898C1135.81 119.898 1130.7 125.018 1130.7 131.298C1130.7 137.588 1135.82 142.698 1142.1 142.698C1148.39 142.698 1153.5 137.578 1153.5 131.298C1153.51 125.008 1148.39 119.898 1142.1 119.898Z" fill="white"/>
<path d="M936.06 202.175C942.356 202.175 947.46 197.071 947.46 190.775C947.46 184.479 942.356 179.375 936.06 179.375C929.764 179.375 924.66 184.479 924.66 190.775C924.66 197.071 929.764 202.175 936.06 202.175Z" fill="white"/>
<path d="M987.57 209.117C981.28 209.117 976.17 214.227 976.17 220.517C976.17 226.807 981.28 231.917 987.57 231.917C993.86 231.917 998.97 226.797 998.97 220.517C998.97 214.227 993.86 209.117 987.57 209.117Z" fill="white"/>
<path d="M1039.08 261.659C1045.38 261.659 1050.48 256.555 1050.48 250.259C1050.48 243.963 1045.38 238.859 1039.08 238.859C1032.78 238.859 1027.68 243.963 1027.68 250.259C1027.68 256.555 1032.78 261.659 1039.08 261.659Z" fill="white"/>
<path d="M1090.59 209.117C1084.3 209.117 1079.19 214.227 1079.19 220.517C1079.19 226.807 1084.3 231.917 1090.59 231.917C1096.88 231.917 1101.99 226.797 1101.99 220.517C1102 214.227 1096.88 209.117 1090.59 209.117Z" fill="white"/>
<path d="M1142.1 179.375C1135.81 179.375 1130.7 184.495 1130.7 190.775C1130.7 197.055 1135.82 202.175 1142.1 202.175C1148.39 202.175 1153.5 197.055 1153.5 190.775C1153.5 184.495 1148.39 179.375 1142.1 179.375Z" fill="white"/>
<path d="M936.06 261.659C942.356 261.659 947.46 256.555 947.46 250.259C947.46 243.963 942.356 238.859 936.06 238.859C929.764 238.859 924.66 243.963 924.66 250.259C924.66 256.555 929.764 261.659 936.06 261.659Z" fill="white"/>
<path d="M987.57 268.594C981.28 268.594 976.17 273.704 976.17 279.994C976.17 286.284 981.28 291.394 987.57 291.394C993.86 291.394 998.97 286.274 998.97 279.994C998.97 273.714 993.86 268.594 987.57 268.594Z" fill="white"/>
<path d="M1039.08 298.336C1032.79 298.336 1027.68 303.456 1027.68 309.736C1027.68 316.026 1032.8 321.136 1039.08 321.136C1045.36 321.136 1050.48 316.016 1050.48 309.736C1050.48 303.446 1045.37 298.336 1039.08 298.336Z" fill="white"/>
<path d="M1090.59 268.594C1084.3 268.594 1079.19 273.704 1079.19 279.994C1079.19 286.284 1084.3 291.394 1090.59 291.394C1096.88 291.394 1101.99 286.274 1101.99 279.994C1101.99 273.714 1096.88 268.594 1090.59 268.594Z" fill="white"/>
<path d="M1142.1 238.859C1135.81 238.859 1130.7 243.979 1130.7 250.259C1130.7 256.539 1135.82 261.659 1142.1 261.659C1148.39 261.659 1153.5 256.539 1153.5 250.259C1153.5 243.979 1148.39 238.859 1142.1 238.859Z" fill="white"/>
<path d="M884.55 268.594C878.26 268.594 873.15 273.704 873.15 279.994C873.15 286.284 878.26 291.394 884.55 291.394C890.84 291.394 895.95 286.274 895.95 279.994C895.95 273.714 890.84 268.594 884.55 268.594Z" fill="white"/>
<path d="M936.06 298.336C929.77 298.336 924.66 303.456 924.66 309.736C924.66 316.026 929.78 321.136 936.06 321.136C942.34 321.136 947.46 316.016 947.46 309.736C947.46 303.446 942.35 298.336 936.06 298.336Z" fill="white"/>
<path d="M987.57 328.078C981.28 328.078 976.17 333.188 976.17 339.478C976.17 345.768 981.28 350.878 987.57 350.878C993.86 350.878 998.97 345.758 998.97 339.478C998.97 333.198 993.86 328.078 987.57 328.078Z" fill="white"/>
<path d="M1039.08 357.82C1032.79 357.82 1027.68 362.94 1027.68 369.22C1027.68 375.5 1032.8 380.62 1039.08 380.62C1045.36 380.62 1050.48 375.51 1050.48 369.22C1050.48 362.93 1045.37 357.82 1039.08 357.82Z" fill="white"/>
<path d="M1090.59 328.078C1084.3 328.078 1079.19 333.188 1079.19 339.478C1079.19 345.768 1084.3 350.878 1090.59 350.878C1096.88 350.878 1101.99 345.758 1101.99 339.478C1101.99 333.198 1096.88 328.078 1090.59 328.078Z" fill="white"/>
<path d="M1142.1 298.336C1135.81 298.336 1130.7 303.456 1130.7 309.736C1130.7 316.026 1135.82 321.136 1142.1 321.136C1148.39 321.136 1153.5 316.016 1153.5 309.736C1153.51 303.446 1148.39 298.336 1142.1 298.336Z" fill="white"/>
<path d="M1193.61 291.394C1199.9 291.394 1205.01 286.274 1205.01 279.994C1205.01 273.714 1199.89 268.594 1193.61 268.594C1187.32 268.594 1182.21 273.704 1182.21 279.994C1182.21 286.284 1187.33 291.394 1193.61 291.394Z" fill="white"/>
<path d="M884.55 328.078C878.26 328.078 873.15 333.188 873.15 339.478C873.15 345.768 878.26 350.878 884.55 350.878C890.84 350.878 895.95 345.758 895.95 339.478C895.95 333.198 890.84 328.078 884.55 328.078Z" fill="white"/>
<path d="M936.06 357.82C929.77 357.82 924.66 362.94 924.66 369.22C924.66 375.5 929.78 380.62 936.06 380.62C942.34 380.62 947.46 375.51 947.46 369.22C947.46 362.93 942.35 357.82 936.06 357.82Z" fill="white"/>
<path d="M987.57 387.555C981.28 387.555 976.17 392.665 976.17 398.955C976.17 405.245 981.28 410.355 987.57 410.355C993.86 410.355 998.97 405.235 998.97 398.955C998.97 392.665 993.86 387.555 987.57 387.555Z" fill="white"/>
<path d="M1039.08 417.297C1032.79 417.297 1027.68 422.417 1027.68 428.697C1027.68 434.987 1032.8 440.097 1039.08 440.097C1045.36 440.097 1050.48 434.987 1050.48 428.697C1050.48 422.407 1045.37 417.297 1039.08 417.297Z" fill="white"/>
<path d="M1090.59 387.555C1084.3 387.555 1079.19 392.665 1079.19 398.955C1079.19 405.245 1084.3 410.355 1090.59 410.355C1096.88 410.355 1101.99 405.235 1101.99 398.955C1102 392.665 1096.88 387.555 1090.59 387.555Z" fill="white"/>
<path d="M1142.1 357.82C1135.81 357.82 1130.7 362.94 1130.7 369.22C1130.7 375.5 1135.82 380.62 1142.1 380.62C1148.39 380.62 1153.5 375.51 1153.5 369.22C1153.5 362.93 1148.39 357.82 1142.1 357.82Z" fill="white"/>
<path d="M1193.61 328.078C1187.32 328.078 1182.21 333.188 1182.21 339.478C1182.21 345.768 1187.32 350.878 1193.61 350.878C1199.9 350.878 1205.01 345.758 1205.01 339.478C1205.01 333.198 1199.9 328.078 1193.61 328.078Z" fill="white"/>
<path d="M884.55 387.555C878.26 387.555 873.15 392.665 873.15 398.955C873.15 405.245 878.26 410.355 884.55 410.355C890.84 410.355 895.95 405.235 895.95 398.955C895.95 392.665 890.84 387.555 884.55 387.555Z" fill="white"/>
<path d="M936.06 417.297C929.77 417.297 924.66 422.417 924.66 428.697C924.66 434.987 929.78 440.097 936.06 440.097C942.34 440.097 947.46 434.987 947.46 428.697C947.46 422.407 942.35 417.297 936.06 417.297Z" fill="white"/>
<path d="M987.57 447.039C981.28 447.039 976.17 452.149 976.17 458.439C976.17 464.729 981.28 469.839 987.57 469.839C993.86 469.839 998.97 464.719 998.97 458.439C998.97 452.159 993.86 447.039 987.57 447.039Z" fill="white"/>
<path d="M1039.08 476.781C1032.79 476.781 1027.68 481.901 1027.68 488.181C1027.68 488.571 1027.7 488.961 1027.74 489.341C1028.32 495.081 1033.19 499.581 1039.08 499.581C1044.97 499.581 1049.84 495.081 1050.42 489.341C1050.46 488.961 1050.48 488.571 1050.48 488.181C1050.48 481.891 1045.37 476.781 1039.08 476.781Z" fill="white"/>
<path d="M1090.59 447.039C1084.3 447.039 1079.19 452.149 1079.19 458.439C1079.19 464.729 1084.3 469.839 1090.59 469.839C1096.88 469.839 1101.99 464.719 1101.99 458.439C1101.99 452.159 1096.88 447.039 1090.59 447.039Z" fill="white"/>
<path d="M1142.1 417.297C1135.81 417.297 1130.7 422.417 1130.7 428.697C1130.7 434.987 1135.82 440.097 1142.1 440.097C1148.39 440.097 1153.5 434.987 1153.5 428.697C1153.51 422.407 1148.39 417.297 1142.1 417.297Z" fill="white"/>
<path d="M1193.61 387.555C1187.32 387.555 1182.21 392.665 1182.21 398.955C1182.21 405.245 1187.32 410.355 1193.61 410.355C1199.9 410.355 1205.01 405.235 1205.01 398.955C1205.02 392.665 1199.9 387.555 1193.61 387.555Z" fill="white"/>
<path d="M685.03 384.611C694.47 384.611 702.13 376.951 702.13 367.511V228.241C702.13 218.801 694.47 211.141 685.03 211.141C675.59 211.141 667.93 218.801 667.93 228.241V367.511C667.93 376.951 675.59 384.611 685.03 384.611Z" fill="white"/>
<path d="M197.64 211.133C188.2 211.133 180.54 218.793 180.54 228.233V367.503C180.54 376.943 188.2 384.603 197.64 384.603C207.08 384.603 214.74 376.943 214.74 367.503V228.233C214.74 218.793 207.09 211.133 197.64 211.133Z" fill="white"/>
<path d="M753.44 302.086C744 302.086 736.34 309.746 736.34 319.186V408.646H649.35C640.73 408.646 633.74 415.636 633.74 424.256C633.74 432.876 640.73 439.866 649.35 439.866H730.76C735.96 439.866 740.95 437.786 744.61 434.086L764.89 413.606C768.51 409.956 770.54 405.026 770.54 399.886V319.186C770.54 309.736 762.88 302.086 753.44 302.086Z" fill="white"/>
<path d="M550.32 408.641H453.46C444.84 408.641 437.85 415.631 437.85 424.251C437.85 432.871 444.84 439.861 453.46 439.861H550.32C558.94 439.861 565.93 432.871 565.93 424.251C565.93 415.631 558.94 408.641 550.32 408.641Z" fill="white"/>
<path d="M633.73 279.545C633.73 270.105 626.07 262.445 616.63 262.445C607.19 262.445 599.53 270.105 599.53 279.545V353.385H422.26C406.83 353.385 394.32 340.875 394.32 325.445C394.32 290.655 366.11 262.445 331.32 262.445H279.89C271.31 262.445 264.35 269.405 264.35 277.985C264.35 286.565 271.31 293.525 279.89 293.525H336.12C349.37 293.525 360.12 304.265 360.12 317.525V353.395H255.95C247.37 353.395 240.41 360.355 240.41 368.935V369.095C240.41 377.675 247.37 384.635 255.95 384.635H354.54C359.74 384.635 364.73 382.555 368.4 378.855L381.31 365.825C392.76 377.435 408.67 384.635 426.27 384.635H594.54C599.37 384.635 604.02 382.845 607.61 379.605L627.32 361.815C631.42 358.115 633.75 352.855 633.75 347.345V279.545H633.73Z" fill="white"/>
<path d="M91.89 262.445H40.46C31.88 262.445 24.92 269.405 24.92 277.985C24.92 286.565 31.88 293.525 40.46 293.525H96.69C109.94 293.525 120.69 304.265 120.69 317.525V353.395H16.52C7.94002 353.395 0.97998 360.355 0.97998 368.935V369.095C0.97998 377.675 7.94002 384.635 16.52 384.635H115.11C120.31 384.635 125.3 382.555 128.97 378.855L149.25 358.375C152.87 354.725 154.89 349.795 154.89 344.655V325.465C154.89 290.655 126.69 262.445 91.89 262.445Z" fill="white"/>
<path d="M184.95 499.461H179.52C169.87 499.461 162.04 507.291 162.04 516.941V554.751C162.04 557.131 163.97 559.061 166.35 559.061C168.73 559.061 170.66 557.131 170.66 554.751V537.761H186.16C187.59 537.761 188.95 537.201 189.97 536.191L193.81 532.381V554.751C193.81 557.131 195.74 559.061 198.12 559.061C200.5 559.061 202.43 557.131 202.43 554.751V516.941C202.43 507.291 194.61 499.461 184.95 499.461ZM170.67 529.101V515.611C170.67 511.931 173.65 508.951 177.33 508.951H187.16C190.84 508.951 193.82 511.931 193.82 515.611V529.101H170.67Z" fill="white"/>
<path d="M593.08 499.461H587.65C578 499.461 570.17 507.291 570.17 516.941V554.751C570.17 557.131 572.1 559.061 574.48 559.061C576.86 559.061 578.79 557.131 578.79 554.751V537.761H594.29C595.72 537.761 597.08 537.201 598.1 536.191L601.94 532.381V554.751C601.94 557.131 603.87 559.061 606.25 559.061C608.63 559.061 610.56 557.131 610.56 554.751V516.941C610.56 507.291 602.73 499.461 593.08 499.461ZM578.79 529.101V515.611C578.79 511.931 581.77 508.951 585.45 508.951H595.28C598.96 508.951 601.94 511.931 601.94 515.611V529.101H578.79Z" fill="white"/>
<path d="M457.04 499.461H438.46H438.44C436.06 499.461 434.13 501.391 434.13 503.771V503.781V503.791V554.711V554.751C434.13 555.051 434.16 555.341 434.22 555.621C434.62 557.581 436.36 559.061 438.44 559.061H438.48H463.48C464.92 559.061 466.31 558.481 467.32 557.461L472.95 551.781C473.95 550.771 474.52 549.401 474.52 547.971V516.941C474.52 507.291 466.69 499.461 457.04 499.461ZM465.86 550.401H442.79V508.081H459.2C462.88 508.081 465.86 511.061 465.86 514.741V550.401Z" fill="white"/>
<path d="M729.12 499.461H710.54H710.52C708.14 499.461 706.21 501.391 706.21 503.771V503.781V503.791V554.711V554.751C706.21 555.051 706.24 555.341 706.3 555.621C706.7 557.581 708.44 559.061 710.52 559.061H710.56H735.56C737 559.061 738.39 558.481 739.4 557.461L745.03 551.781C746.03 550.771 746.6 549.401 746.6 547.971V516.941C746.6 507.291 738.77 499.461 729.12 499.461ZM737.94 550.401H714.87V508.081H731.28C734.96 508.081 737.94 511.061 737.94 514.741V550.401Z" fill="white"/>
<path d="M55.53 537.611C56.5 537.381 57.3999 536.881 58.1199 536.161L63.7499 530.481C64.7499 529.471 65.3199 528.101 65.3199 526.671V516.941C65.3199 507.291 57.49 499.461 47.84 499.461H29.45C29.42 499.461 29.3899 499.471 29.3499 499.471C29.3199 499.471 29.2899 499.461 29.2599 499.461C26.8699 499.461 24.9299 501.401 24.9299 503.791V533.401V533.441V554.741C24.9299 557.121 26.8599 559.051 29.2399 559.051H29.28C31.66 559.051 33.59 557.121 33.59 554.741V537.751H43.0499C44.3499 537.751 45.5599 538.391 46.2999 539.461L58.4999 557.191C59.8499 559.151 62.5399 559.641 64.4999 558.301L64.5399 558.271C66.4999 556.921 67 554.241 65.65 552.281L55.53 537.611ZM33.58 529.101V508.091H49.1599C52.8399 508.091 55.8199 511.071 55.8199 514.751V529.101H33.58Z" fill="white"/>
<path d="M333.91 499.462C331.39 499.462 329.34 501.502 329.34 504.032V529.102H313.36C309.68 529.102 306.7 526.122 306.7 522.442V503.772C306.7 501.252 304.54 499.232 301.97 499.482C299.73 499.692 298.08 501.702 298.08 503.962V522.362C298.08 530.872 304.98 537.772 313.49 537.772H322.23C323.66 537.772 325.02 537.212 326.04 536.202L329.34 532.932V550.402H302.4C300.02 550.402 298.09 552.332 298.09 554.712V554.752C298.09 557.132 300.02 559.062 302.4 559.062H327.44C328.88 559.062 330.27 558.482 331.28 557.462L336.91 551.782C337.91 550.772 338.48 549.402 338.48 547.972V504.032C338.47 501.512 336.43 499.462 333.91 499.462Z" fill="white"/>
</g>
<defs>
<clipPath id="clip0_6834_4424">
<rect width="1206" height="560" fill="white"/>
</clipPath>
</defs>
</svg>
